<svg version="1.1" id="Layer_1" xmlns="http://www.w3.org/2000/svg" x="0" y="0" viewBox="0 0 42 48" xml:space="preserve"><style>.st0{fill:#4e4e4e}</style><path class="st0" d="M22.5 47.1h-3c-2 0-3.6-1.6-3.6-3.6v-12c0-1.3-1.1-2.4-2.4-2.4h-9c-2 0-3.6-1.6-3.6-3.6v-3c0-2 1.6-3.6 3.6-3.6h6.7c-.6-2.2-1-4.5-1.3-6.8C9.9 5.9 14.9.9 21 .9s11.1 5 11.1 11.1c-.3 2.4-.8 4.6-1.3 6.9h6.7c2 0 3.6 1.6 3.6 3.6v3c0 2-1.6 3.6-3.6 3.6h-9c-1.3 0-2.4 1.1-2.4 2.4v12c0 2-1.6 3.6-3.6 3.6zm-18-27c-1.3 0-2.4 1.1-2.4 2.4v3c0 1.3 1.1 2.4 2.4 2.4h9c2 0 3.6 1.6 3.6 3.6v12c0 1.3 1.1 2.4 2.4 2.4h3c1.3 0 2.4-1.1 2.4-2.4v-12c0-2 1.6-3.6 3.6-3.6h9c1.3 0 2.4-1.1 2.4-2.4v-3c0-1.3-1.1-2.4-2.4-2.4H30c-.2 0-.4-.1-.5-.2s-.2-.4-.1-.5c.6-2.4 1.1-4.9 1.5-7.4 0-5.4-4.4-9.8-9.9-9.8s-9.9 4.4-9.9 9.9c.3 2.4.8 4.9 1.5 7.3 0 .2 0 .4-.1.5-.1.2-.3.2-.5.2H4.5z"/><path class="st0" d="M21 20.1c-.2 0-.3-.1-.5-.2-.5-.5-4.7-5.3-4.7-7.9 0-2.8 2.3-5.1 5.1-5.1S26 9.2 26 12c0 2.6-4.2 7.4-4.7 7.9 0 .1-.1.2-.3.2zm0-12c-2.1 0-3.9 1.7-3.9 3.9 0 1.6 2.5 4.9 3.9 6.5 1.4-1.6 3.9-4.9 3.9-6.5 0-2.1-1.8-3.9-3.9-3.9z"/></svg>