<svg width="42" height="48" fill="none" xmlns="http://www.w3.org/2000/svg"><path d="M40.5 22.5c0-1.656-1.344-3-3-3H30a64.622 64.622 0 0 0 1.5-7.5c0-5.798-4.702-10.5-10.5-10.5S10.5 6.202 10.5 12a64.622 64.622 0 0 0 1.5 7.5H4.5c-1.656 0-3 1.344-3 3v3c0 1.656 1.344 3 3 3h9c1.656 0 3 1.344 3 3v12c0 1.656 1.344 3 3 3h3c1.656 0 3-1.344 3-3v-12c0-1.656 1.344-3 3-3h9c1.656 0 3-1.344 3-3v-3z" stroke="#4E4E4E" stroke-width="1.25" stroke-linecap="round" stroke-linejoin="round"/><path d="M25.5 12c0 2.486-4.5 7.5-4.5 7.5s-4.5-5.014-4.5-7.5A4.5 4.5 0 0 1 21 7.5a4.5 4.5 0 0 1 4.5 4.5z" stroke="#4E4E4E" stroke-width="1.25" stroke-linecap="round" stroke-linejoin="round"/></svg>