<svg xmlns="http://www.w3.org/2000/svg" width="300" height="134.069"><path d="M71.564 90.499l-.729 5.908h-15.5l.73-5.908h15.5zm11.364-7.744c-1.973-1.483-3.52-1.747-9.377-1.734H44.123l-.05.54-3.897 31.628h13.11l1.082-8.85h15.55l-1.081 8.85H81.91l.754-6.072c.49-3.432-.528-5.418-3.432-6.813 3.068-1.308 4.69-3.168 4.991-5.883l.842-6.8c.24-1.924-.603-3.672-2.137-4.866m36.38 13.627h-15.55l.729-5.883h15.537l-.716 5.883zm3.369-15.361h-18.504c-4.526 0-7.467.716-9.768 2.564-1.86 1.446-2.577 3.08-2.992 6.662l-.075.704-2.74 22.238h13.098l.063-.54 1.03-8.335h15.6l-1.093 8.875h13.099l2.74-22.25c.528-4.098.227-5.632-1.295-7.342-1.671-1.785-4.626-2.576-9.163-2.576m47.831 9.478l-1.622 13.211h-16.832l1.622-13.211h16.832zm1.71-9.478h-30.535l-.063.54-3.884 31.628h30.572c5.393 0 8.058-.566 10.358-2.426 1.848-1.484 2.98-3.797 3.306-6.512l1.76-14.28c.34-2.715-.201-4.915-1.722-6.474-1.672-1.873-4.3-2.476-9.793-2.476m20.428.54l-3.885 31.628h13.15l3.959-32.168h-13.162l-.063.54m47.266 22.149h-16.19l1.62-13.199h16.192l-1.622 13.2zm12.62-20.766c-1.947-1.458-4.31-1.923-9.314-1.923H225.97c-4.965 0-7.354.427-9.767 1.91-2.326 1.408-3.558 3.683-3.947 7.04l-1.773 14.28c-.427 3.331.226 5.531 2.25 7.014 1.86 1.509 4.262 1.924 9.34 1.924h17.272c4.903 0 7.241-.39 9.692-1.911 2.326-1.358 3.508-3.658 3.91-7.027l1.747-14.28c.415-3.344-.163-5.494-2.162-7.027M.402 97.25A52.462 52.462 0 0 0 0 103.797c0 9.919 2.84 19.032 7.831 26.5l2.54 3.77 8.183-5.908-2.514-3.746c-4.098-6.134-6.411-13.55-6.411-21.71 0-1.746.1-3.544.34-5.367.716-5.92 2.589-11.565 5.342-16.706H5.104C2.74 85.86 1.119 91.454.402 97.249m18.316.001a35.479 35.479 0 0 0-.264 4.286c0 6.7 1.986 12.847 5.455 17.825l2.577 3.72 8.108-6.02-2.577-3.709c-2.501-3.62-3.934-8.032-3.934-12.885l.2-3.13c.78-6.285 3.747-11.992 8.071-16.442l.252-.264H24.99c-3.28 4.953-5.518 10.61-6.272 16.618m267.075-7.329c0 1.773-.113 3.558-.327 5.393-1.257 10.258-5.933 19.648-12.76 27.115l-3.406 3.734 6.788 5.97 3.407-3.733c8.284-9.05 13.991-20.54 15.537-32.998.264-2.225.402-4.4.402-6.549 0-2.803-.276-5.556-.703-8.221h-9.994a40.777 40.777 0 0 1 1.056 9.29m-18.453 2.262l-.19 3.13c-.754 6.097-3.582 11.666-7.693 16.053l-3.482 3.696 6.688 6.084 3.47-3.683c5.631-5.996 9.54-13.702 10.559-22.062.188-1.458.264-2.878.264-4.286 0-3.709-.604-7.228-1.735-10.484h-10.974c1.986 3.344 3.092 7.278 3.092 11.552M16.027.129L78.34.14l-2.338 20.402H13.438L16.028.13m83.883.237c11.615 0 104.776-.113 111.728 0 7.052.114 12.62 5.77 12.797 13.061.088 3.445-.642 7.166-.642 7.166l-142.751-.05s.528-3.508.993-6.625C82.853 8.212 90.483.355 99.91.367M231.538.053S271.5-.035 284.435.016c8.322.037 16.706 3.947 15.437 17.397-.365 3.985-.264 3.18-.264 3.18l-70.509-.05 2.44-20.49M75.688 72.736L78 53.541l46.02-.05.855-8.51s-28.937.075-33.588-.101c-6.587-.239-13.01-4.928-11.213-16.568 12.243-.113 49.377-.1 53.55-.063 8.398.063 15.45 4.639 14.884 16.204-.251 5.141-1.52 15.223-3.784 19.132-6.021 10.421-15.084 9.026-16.807 9.151-1.395.05-52.23 0-52.23 0m147.165-44.135s-.679 3.847-1.17 6.323c-1.018 5.154-4.173 9.981-11.501 9.994h-32.634l-3.934 27.818h-23.595l5.593-44.135h67.24m5.155 0h24.349l-6.31 43.997-24.06.013 6.02-44.01m46.713 0h23.645l-5.606 44.135h-23.633l5.594-44.135m-262.361-.289h62.702l-2.225 16.895-38.793.038-1.093 8.246 38.805.05-2.326 19.309H6.99l5.368-44.538" fill="#c00"/></svg>