<svg class="svg-icon-heart-beat" xmlns="http://www.w3.org/2000/svg" viewBox="0 0 49 42"><path d="M24.5 40.6c-.5 0-1.1-.2-1.5-.6l-9-9.4c-.2-.2-.2-.6 0-.9.2-.2.6-.2.9 0l9 9.4c.4.4.9.3 1.3 0l9-9.4c.2-.2.6-.3.9 0 .2.2.3.6 0 .9L26 40c-.4.4-.9.6-1.5.6zM3.4 18.8c-.2 0-.4-.1-.5-.3C1 15 .9 10.8 2.6 7.3c1.4-2.9 3.9-5 6.9-6 3-1 6.3-.8 9.1.7 1.2.6 2.2 1.3 3.1 2.2l2.7 2.7 2.7-2.7C31.8-.5 39.4-.5 44 4.2c.9.9 1.7 2 2.2 3.1 1.8 3.5 1.7 7.7-.3 11.2-.2.3-.5.4-.8.2-.3-.2-.4-.5-.2-.8 1.7-3.1 1.8-6.8.2-10-.5-1-1.2-2-2-2.8-4.2-4.2-11-4.2-15.2 0l-3.1 3.1c-.2.2-.6.2-.9 0l-3.1-3.1c-.8-.8-1.8-1.5-2.8-2-2.6-1.3-5.5-1.5-8.2-.6-2.6.9-4.8 2.8-6 5.4-1.6 3.1-1.5 6.9.2 10 .2.3.1.7-.2.9h-.4z"/><path d="M24.6 29.3c-.2 0-.4-.1-.6-.2-.3-.2-.6-.5-.7-.8L20 17.2s0-.1-.1-.1-.1 0-.2.1L16.3 24c-.2.5-.7.8-1.2.8H2c-.3 0-.6-.3-.6-.6s.3-.6.6-.6h13s.1 0 .1-.1l3.4-6.9c.3-.7 1.2-1 1.8-.6.4.2.6.5.7.9L24.5 28l.3.7-.2-.6s.1 0 .1-.1l3.1-7.3c.1-.3.4-.6.8-.7.3-.1.7-.1 1.1 0 .2.1.5.3.6.5l2 3.1H47c.3 0 .6.3.6.6s-.3.6-.6.6H32c-.2 0-.4-.1-.5-.3l-2.2-3.3h-.2l-3.2 7.4c-.2.4-.5.6-.8.8-.2-.1-.3-.1-.5-.1z"/></svg>