<svg width="169" height="192" fill="none" xmlns="http://www.w3.org/2000/svg"><path d="M78.273 2.743c-2.197.914-20.878 9.508-34.247 23.04-4.579 1.28-9.524 2.926-14.651 5.303-12.088 5.303-21.611 12.068-22.71 12.8l-5.494 4.023-.733 6.765c0 1.28-1.099 12.8.183 26.149C1.171 86.309 2.087 91.429 3.37 96c-1.282 4.571-2.198 9.509-2.748 14.994-1.282 13.349-.183 24.869 0 26.149l.55 6.766 5.494 4.022c1.099.732 10.44 7.498 22.71 12.983 5.127 2.195 10.072 4.023 14.65 5.12 13.37 13.532 32.05 22.126 34.248 23.223L84.5 192l6.227-2.743c2.197-1.097 20.878-9.691 34.247-23.223 4.579-1.097 9.523-2.925 14.651-5.12 12.271-5.485 21.611-12.251 22.71-12.983l5.494-4.022.733-6.766c0-1.28 1.099-12.8-.183-26.149-.55-5.485-1.466-10.423-2.748-14.994 1.282-4.571 2.198-9.691 2.748-15.177 1.282-13.349.183-24.869.183-26.149l-.733-6.765-5.494-4.023c-1.099-.732-10.622-7.497-22.71-12.8-5.128-2.377-10.072-4.023-14.651-5.303-13.369-13.532-32.05-22.126-34.247-23.04L84.5 0l-6.227 2.743z" fill="url(#paint0_linear)"/><path d="M78.478 8.918c-2.047.847-19.45 8.815-31.905 21.36-4.266 1.187-8.872 2.712-13.65 4.916-11.26 4.916-20.132 11.189-21.156 11.867l-5.119 3.73-.682 6.272c0 1.187-1.024 11.867.17 24.242.512 5.086 1.366 9.833 2.56 14.071-1.194 4.238-2.048 8.816-2.56 13.901-1.194 12.376-.17 23.056 0 24.243l.512 6.272 5.119 3.73c1.024.678 9.725 6.95 21.156 12.036 4.778 2.034 9.384 3.73 13.65 4.747 12.455 12.545 29.858 20.512 31.905 21.53l5.8 2.543 5.802-2.543c2.047-1.018 19.45-8.985 31.905-21.53 4.266-1.017 8.872-2.713 13.649-4.747 11.432-5.086 20.133-11.358 21.157-12.036l5.118-3.73.683-6.272c0-1.187 1.024-11.867-.171-24.243-.512-5.085-1.365-9.663-2.559-13.9 1.194-4.239 2.047-8.986 2.559-14.072 1.195-12.375.171-23.055.171-24.242l-.683-6.272-5.118-3.73c-1.024-.678-9.896-6.95-21.157-11.867-4.777-2.204-9.383-3.73-13.649-4.916C109.53 17.733 92.127 9.765 90.08 8.918l-5.801-2.543-5.801 2.543z" fill="#fff"/><mask id="a" maskUnits="userSpaceOnUse" x="36" y="48" width="97" height="96"><g clip-path="url(#clip0)" stroke="#000" stroke-width="1.3" stroke-linecap="round" stroke-linejoin="round"><path d="M88.404 97.672a6.016 6.016 0 0 1-8.497.06l-.06-.06-21.327-21.6a14.383 14.383 0 0 1-2.836-16.948c4.006-7.488 13.331-10.312 20.826-6.312a15.5 15.5 0 0 1 3.437 2.496l4.179 4.056 4.182-4.056c6.117-5.896 15.859-5.724 21.764.384a15.278 15.278 0 0 1 2.5 3.432 14.386 14.386 0 0 1-2.84 16.964L88.404 97.672zM51.076 141l-8.068-9.524a17.989 17.989 0 0 1-3.95-11.244V99.544c0-3.312 2.693-6 6.01-6a6.007 6.007 0 0 1 6.008 6v15"/><path d="M69.103 141v-12c0-3.56-1.053-7.04-3.032-10l-4.575-6.84a5.611 5.611 0 0 0-7.7-1.9c-.076.044-.148.092-.22.14a5.597 5.597 0 0 0-1.899 7.144l5.416 9M117.174 141l8.068-9.524a17.987 17.987 0 0 0 3.95-11.244V99.544c0-3.312-2.692-6-6.009-6a6.007 6.007 0 0 0-6.009 6v15"/><path d="M99.147 141v-12c0-3.56 1.054-7.04 3.033-10l4.575-6.848a5.617 5.617 0 0 1 7.919-1.78 5.592 5.592 0 0 1 1.907 7.164l-5.416 9"/></g></mask><g mask="url(#a)"><path d="M78.068 2.805c-2.192.91-20.823 9.47-34.157 22.948-4.567 1.275-9.499 2.914-14.613 5.281-12.056 5.282-21.554 12.02-22.65 12.749l-5.48 4.007-.73 6.738c0 1.275-1.097 12.749.182 26.044.548 5.463 1.461 10.563 2.74 15.116-1.279 4.553-2.192 9.47-2.74 14.934-1.279 13.295-.183 24.769 0 26.044l.548 6.738 5.48 4.007c1.096.728 10.411 7.467 22.65 12.931 5.114 2.185 10.046 4.006 14.613 5.099 13.334 13.477 31.965 22.037 34.157 23.13l6.21 2.732 6.211-2.732c2.192-1.093 20.823-9.653 34.158-23.13 4.566-1.093 9.498-2.914 14.613-5.099 12.238-5.464 21.554-12.203 22.65-12.931l5.479-4.007.731-6.738c0-1.275 1.096-12.749-.183-26.044-.548-5.464-1.461-10.381-2.74-14.934 1.279-4.553 2.192-9.653 2.74-15.116 1.279-13.295.183-24.769.183-26.044l-.731-6.738-5.479-4.007c-1.096-.729-10.595-7.467-22.65-12.749-5.115-2.367-10.047-4.006-14.613-5.281C111.312 12.276 92.681 3.716 90.489 2.805L84.28.073l-6.21 2.732z" fill="url(#paint1_linear)"/></g><defs><linearGradient id="paint0_linear" x1="84.501" y1="1.829" x2="84.501" y2="184.686" gradientUnits="userSpaceOnUse"><stop stop-color="#55A4DB"/><stop offset=".2" stop-color="#7FC348"/><stop offset=".4" stop-color="#F79327"/><stop offset=".64" stop-color="#EE2B30"/><stop offset=".84" stop-color="#F27BAB"/><stop offset="1" stop-color="#673090"/></linearGradient><linearGradient id="paint1_linear" x1="84.28" y1="1.895" x2="84.28" y2="184.018" gradientUnits="userSpaceOnUse"><stop stop-color="#55A4DB"/><stop offset=".2" stop-color="#7FC348"/><stop offset=".4" stop-color="#F79327"/><stop offset=".64" stop-color="#EE2B30"/><stop offset=".84" stop-color="#F27BAB"/><stop offset="1" stop-color="#673090"/></linearGradient><clipPath id="clip0"><path fill="#fff" d="M36.054 48h96.142v96H36.054z"/></clipPath></defs></svg>