<svg xmlns="http://www.w3.org/2000/svg" viewBox="0 0 169 192"><linearGradient id="a" gradientUnits="userSpaceOnUse" x1="84.5" y1="190.071" x2="84.5" y2="7.214" gradientTransform="rotate(180 84.5 95.95)"><stop offset="0" stop-color="#55a4db"/><stop offset=".2" stop-color="#7fc348"/><stop offset=".4" stop-color="#f79327"/><stop offset=".64" stop-color="#ee2b30"/><stop offset=".84" stop-color="#f27bab"/><stop offset="1" stop-color="#673090"/></linearGradient><path d="M3.4 95.9c-1.3 4.6-2.2 9.7-2.7 15.2-1.3 13.3-.2 24.9-.2 26.1l.7 6.8 5.5 4c1.1.7 10.6 7.5 22.7 12.8 5.1 2.4 10.1 4 14.7 5.3 13.4 13.5 32 22.1 34.2 23l6.2 2.8 6.2-2.7c2.2-.9 20.9-9.5 34.2-23 4.6-1.3 9.5-2.9 14.7-5.3 12.1-5.4 21.6-12.2 22.7-12.9l5.5-4 .7-6.8c0-1.3 1.1-12.8-.2-26.1-.5-5.5-1.4-10.6-2.7-15.2 1.3-4.6 2.2-9.5 2.7-15 1.3-13.3.2-24.9 0-26.1l-.5-6.8-5.5-4c-1.1-.7-10.4-7.5-22.7-13-5.1-2.2-10.1-4-14.7-5.1-13.4-13.5-32-22.1-34.2-23.2L84.5 0l-6.2 2.7c-2.2 1.1-20.9 9.7-34.2 23.2-4.6 1.1-9.5 2.9-14.7 5.1C17.1 36.5 7.8 43.3 6.7 44l-5.5 4-.7 6.8c0 1.3-1.1 12.8.2 26.1.6 5.5 1.5 10.4 2.7 15zm3.2-13.3c-1.2-12.3-.2-23-.2-24.2l.7-6.3 5.1-3.7c1.1-.6 9.8-6.9 21.2-12 4.7-2 9.3-3.7 13.6-4.7 12.4-12.5 29.9-20.5 31.9-21.5l5.8-2.5 5.8 2.5c2 1 19.4 9 31.9 21.5 4.2 1 8.8 2.7 13.6 4.7 11.5 5.1 20.2 11.3 21.2 12l5.1 3.7.5 6.3c.2 1.1 1.2 11.8 0 24.2-.6 5.1-1.4 9.7-2.6 13.9 1.2 4.3 2.1 9 2.6 14.1 1.2 12.3.2 23 .2 24.2l-.7 6.3-5.1 3.7c-1.1.7-9.9 7-21.2 11.9-4.7 2.2-9.3 3.7-13.6 4.9-12.4 12.6-29.9 20.6-31.9 21.4l-5.8 2.5-5.8-2.5c-2-.9-19.4-8.8-31.9-21.4-4.2-1.2-8.8-2.7-13.6-4.9-11.3-4.9-20.2-11.2-21.2-11.9l-5.1-3.7-.7-6.3c0-1.1-1-11.8.2-24.2.6-5.1 1.4-9.9 2.6-14.1-1.2-4.2-2.1-8.8-2.6-13.9z" fill="url(#a)"/><linearGradient id="b" gradientUnits="userSpaceOnUse" x1="118.653" y1="238.149" x2="118.653" y2="55.922"><stop offset="0" stop-color="#55a4db"/><stop offset=".2" stop-color="#7fc348"/><stop offset=".4" stop-color="#f79327"/><stop offset=".64" stop-color="#ee2b30"/><stop offset=".84" stop-color="#f27bab"/><stop offset="1" stop-color="#673090"/></linearGradient><path d="M138.6 98.8c-.6-3.2-2-6-5.4-7.6-3.1-1.5-7-1.3-9.9.6-5.5 3.7-4.4 10.3-4.4 16v.8c-1.6-.4-3-.7-4.6-.5-2.6.4-4.7 1.6-6.2 3.7-1.1 1.6-6.8 9.8-8 12.6-1 2.4-1.6 4.9-1.7 7.5-.1 2.5 0 5 0 7.6s-.4 5.6.2 8.1c.2.7.5 1.3 1 1.7s1 .5 1.6.5c.7 0 1.5-.2 2.1-.7.5-.5.8-1.2 1-1.9.4-2.1.1-4.6.1-6.7v-7.1c0-3.1.7-6 2.3-8.7 1.2-2.1 5.4-8.2 6.1-9.3.9-1.3 2.8-1.9 4.2-1.2 1.5.8 2.4 2.7 1.7 4.2-.5 1.1-4.9 8-6.2 10.4-1.1 1.9.3 4.2 2.2 4.4 1.3.2 2.3-.3 3-1.4 2.1-3.5 4.3-7.1 6.4-10.6.7-1.2 1-2.7 1-4.1V99.5c0-1.8 1.8-3.7 3.8-3.7 2.1 0 3.8 2 3.8 3.7V124c0 2.9-.9 5.6-2.4 8s-3.5 4.5-5.3 6.6c-.9 1-1.8 2.1-2.6 3.2-1 1.4-2.8 2.6-3.2 4.3-.2 1 .1 2 .8 2.7.7.7 1.8 1 2.7.7 1.3-.3 2.2-1.5 3-2.5 1.1-1.3 2.1-2.5 3.2-3.8 1.7-2.1 3.5-4.1 5.2-6.2 3.1-3.9 4.6-8.9 4.6-13.7.1-6 .2-12 .3-17.9.1-2.2 0-4.4-.4-6.6z" fill="url(#b)"/><linearGradient id="c" gradientUnits="userSpaceOnUse" x1="50.3" y1="238.56" x2="50.3" y2="56.372"><stop offset="0" stop-color="#55a4db"/><stop offset=".2" stop-color="#7fc348"/><stop offset=".4" stop-color="#f79327"/><stop offset=".64" stop-color="#ee2b30"/><stop offset=".84" stop-color="#f27bab"/><stop offset="1" stop-color="#673090"/></linearGradient><path d="M46.2 150c.4.1.8.2 1.1.1 1-.1 2-.8 2.4-1.7.6-1.4-.1-2.9-1-4.1-3-3.7-6.3-7.1-9.1-10.9-3.1-4.3-3-9.3-3-14.4v-18.8c0-2 1.9-3.9 3.8-3.9 2 0 3.8 2 3.8 3.9-.1 5.6-.1 11.3 0 16.9.1 2.9 1.1 4.9 2.5 7.3 1.4 2.3 2.7 4.6 4.1 6.9 1 1.7 2.7 3.4 4.8 2 1.4-.9 1.8-2.8.9-4.3-2-3.3-4.1-6.5-6-9.9-1.1-1.9.2-4.4 2.6-4.7 1.4-.2 2.4.4 3.2 1.5 1.8 2.7 3.7 5.4 5.4 8.2 1.4 2.1 2.3 4.4 2.5 6.8.2 1.6.3 3.1.3 4.7 0 3.6.1 7.3 0 10.9 0 1.3.6 3.3 2.1 3.6h1.5c1.5-.3 2.3-1.9 2.3-3.3v-8.7c0-2.7-.1-5.5-.3-8.2-.2-2.1-.9-4.1-1.8-6-1.1-2.5-2.8-4.7-4.3-7-1.2-1.7-2.2-3.5-3.5-5.1-2.1-2.5-4.8-3.7-8.2-3.3-.8.1-1.5.3-2.4.4v-.9c0-3.1 0-6.2-.2-9.3-.1-2.1-1.1-3.9-2.6-5.4-2.5-2.5-5.5-3.5-8.9-2.8-5.9 1.2-8 6.4-8 11.8v16.5c0 3.8 0 7.7 1 11.4 1 3.9 3.1 7 5.7 10 2.3 2.7 4.4 5.7 6.9 8.3.7.6 1.5 1.2 2.4 1.5z" fill="url(#c)"/><linearGradient id="d" gradientUnits="userSpaceOnUse" x1="84.431" y1="-1114.059" x2="84.431" y2="-1295.836" gradientTransform="matrix(1 0 0 -1 0 -1112)"><stop offset="0" stop-color="#55a4db"/><stop offset=".2" stop-color="#7fc348"/><stop offset=".4" stop-color="#f79327"/><stop offset=".64" stop-color="#ee2b30"/><stop offset=".84" stop-color="#f27bab"/><stop offset="1" stop-color="#673090"/></linearGradient><path d="M91 100.4c5.1-5.5 10.5-10.6 15.8-15.9 4.3-4.2 9.2-8.2 12.2-13.5 1.2-2.1 2.1-4.4 2.4-6.9 1.4-10.9-6.9-20.6-17.5-22-7.9-1.1-14.1 2.7-19.4 8-.7-.7-1.3-1.4-2-2.1-8-8-21.6-8.2-29.5-.1-3 3.1-5 7.2-5.5 11.5-.5 3.3 0 6.6 1.2 9.6 2.1 5.1 6.7 9 10.5 12.9 4.7 4.8 9.5 9.3 14 14.2 3.3 3.5 7.2 7.7 12.5 6.8 2.2-.4 4-1.1 5.3-2.5zm-9.3-4.7c-1.5-1.5-11.8-11.9-15.5-15.6-3.1-3.1-6.2-6.2-9.2-9.4-2-2.1-3.1-4.6-3.5-7.5-.4-2.6.1-5.1 1.2-7.5 1-2 2.5-3.7 4.3-5 1.9-1.4 4.1-2.3 6.5-2.7 2.7-.4 5.3 0 7.8 1.1 2 .8 3.6 2.1 5.1 3.6 1.2 1.1 2.3 2.3 3.5 3.5 1.6 1.6 3.4 1.6 5 0l2.6-2.6c1.6-1.5 3.1-3.1 5-4.1 1.6-.8 3.3-1.3 5.1-1.6 2.6-.4 5.1.1 7.5 1.2 1.1.5 2.3 1.1 3.2 1.9 2.7 2.3 4.6 5.1 5 8.7.1.6.1 1.2.2 1.6-.1 3.9-1.4 7.1-4 9.7-2.3 2.3-14.9 15-18.9 19-1.8 1.9-3.6 3.8-5.5 5.6-1.4 1.7-3.8 1.7-5.4.1z" fill="url(#d)"/></svg>