<svg width="42" height="48" viewBox="0 0 42 48" fill="none" xmlns="http://www.w3.org/2000/svg">
	<path d="M40.5 22.5C40.5 20.844 39.156 19.5 37.5 19.5H30C30.648 17.032 31.148 14.528 31.5 12C31.5 6.202 26.798 1.5 21 1.5C15.202 1.5 10.5 6.202 10.5 12C10.852 14.528 11.352 17.032 12 19.5H4.5C2.844 19.5 1.5 20.844 1.5 22.5V25.5C1.5 27.156 2.844 28.5 4.5 28.5H13.5C15.156 28.5 16.5 29.844 16.5 31.5V43.5C16.5 45.156 17.844 46.5 19.5 46.5H22.5C24.156 46.5 25.5 45.156 25.5 43.5V31.5C25.5 29.844 26.844 28.5 28.5 28.5H37.5C39.156 28.5 40.5 27.156 40.5 25.5V22.5Z" stroke="#4E4E4E" stroke-width="1.25" stroke-linecap="round" stroke-linejoin="round"/>
	<path d="M25.5 12C25.5 14.486 21 19.5 21 19.5C21 19.5 16.5 14.486 16.5 12C16.5 9.514 18.514 7.5 21 7.5C23.486 7.5 25.5 9.514 25.5 12Z" stroke="#4E4E4E" stroke-width="1.25" stroke-linecap="round" stroke-linejoin="round"/>
</svg>
