<?xml version="1.0" encoding="utf-8"?>
<!-- Generator: Adobe Illustrator 24.0.3, SVG Export Plug-In . SVG Version: 6.00 Build 0)  -->
<svg version="1.1" id="Layer_1" xmlns="http://www.w3.org/2000/svg" xmlns:xlink="http://www.w3.org/1999/xlink" x="0px" y="0px"
	 viewBox="0 0 42 48" style="enable-background:new 0 0 42 48;" xml:space="preserve">
<style type="text/css">
	.st0{fill:#4E4E4E;}
</style>
<path class="st0" d="M22.5,47.1h-3c-2,0-3.6-1.6-3.6-3.6v-12c0-1.3-1.1-2.4-2.4-2.4h-9c-2,0-3.6-1.6-3.6-3.6v-3c0-2,1.6-3.6,3.6-3.6
	h6.7c-0.6-2.2-1-4.5-1.3-6.8c0-6.2,5-11.2,11.1-11.2c6.1,0,11.1,5,11.1,11.1c-0.3,2.4-0.8,4.6-1.3,6.9h6.7c2,0,3.6,1.6,3.6,3.6v3
	c0,2-1.6,3.6-3.6,3.6h-9c-1.3,0-2.4,1.1-2.4,2.4v12C26.1,45.5,24.5,47.1,22.5,47.1z M4.5,20.1c-1.3,0-2.4,1.1-2.4,2.4v3
	c0,1.3,1.1,2.4,2.4,2.4h9c2,0,3.6,1.6,3.6,3.6v12c0,1.3,1.1,2.4,2.4,2.4h3c1.3,0,2.4-1.1,2.4-2.4v-12c0-2,1.6-3.6,3.6-3.6h9
	c1.3,0,2.4-1.1,2.4-2.4v-3c0-1.3-1.1-2.4-2.4-2.4H30c-0.2,0-0.4-0.1-0.5-0.2s-0.2-0.4-0.1-0.5c0.6-2.4,1.1-4.9,1.5-7.4
	c0-5.4-4.4-9.8-9.9-9.8s-9.9,4.4-9.9,9.9c0.3,2.4,0.8,4.9,1.5,7.3c0,0.2,0,0.4-0.1,0.5c-0.1,0.2-0.3,0.2-0.5,0.2H4.5z"/>
<path class="st0" d="M21,20.1c-0.2,0-0.3-0.1-0.5-0.2c-0.5-0.5-4.7-5.3-4.7-7.9c0-2.8,2.3-5.1,5.1-5.1s5.1,2.3,5.1,5.1
	c0,2.6-4.2,7.4-4.7,7.9C21.3,20,21.2,20.1,21,20.1z M21,8.1c-2.1,0-3.9,1.7-3.9,3.9c0,1.6,2.5,4.9,3.9,6.5c1.4-1.6,3.9-4.9,3.9-6.5
	C24.9,9.9,23.1,8.1,21,8.1z"/>
</svg>
