<svg class="svg-icon-heart-beat" version="1.1" id="Layer_1" xmlns="http://www.w3.org/2000/svg" xmlns:xlink="http://www.w3.org/1999/xlink" x="0px" y="0px"
	 viewBox="0 0 49 42" style="enable-background:new 0 0 49 42;" xml:space="preserve">
<path d="M24.5,40.6c-0.5,0-1.1-0.2-1.5-0.6C23,40,23,40,23,40l-9-9.4c-0.2-0.2-0.2-0.6,0-0.9c0.2-0.2,0.6-0.2,0.9,0
	l9,9.4c0.4,0.4,0.9,0.3,1.3,0l9-9.4c0.2-0.2,0.6-0.3,0.9,0c0.2,0.2,0.3,0.6,0,0.9L26,40C25.6,40.4,25.1,40.6,24.5,40.6z"/>
<path d="M3.4,18.8c-0.2,0-0.4-0.1-0.5-0.3C1,15,0.9,10.8,2.6,7.3c1.4-2.9,3.9-5,6.9-6c3-1,6.3-0.8,9.1,0.7
	c1.2,0.6,2.2,1.3,3.1,2.2l2.7,2.7l2.7-2.7c4.7-4.7,12.3-4.7,16.9,0c0.9,0.9,1.7,2,2.2,3.1c1.8,3.5,1.7,7.7-0.3,11.2
	c-0.2,0.3-0.5,0.4-0.8,0.2c-0.3-0.2-0.4-0.5-0.2-0.8c1.7-3.1,1.8-6.8,0.2-10c-0.5-1-1.2-2-2-2.8c-4.2-4.2-11-4.2-15.2,0l-3.1,3.1
	c-0.2,0.2-0.6,0.2-0.9,0l-3.1-3.1c-0.8-0.8-1.8-1.5-2.8-2c-2.6-1.3-5.5-1.5-8.2-0.6C7.2,3.4,5,5.3,3.8,7.9C2.2,11,2.3,14.8,4,17.9
	c0.2,0.3,0.1,0.7-0.2,0.9C3.6,18.8,3.5,18.8,3.4,18.8z"/>
<path d="M24.6,29.3c-0.2,0-0.4-0.1-0.6-0.2c-0.3-0.2-0.6-0.5-0.7-0.8L20,17.2c0,0,0-0.1-0.1-0.1c-0.1,0-0.1,0-0.2,0.1
	L16.3,24c-0.2,0.5-0.7,0.8-1.2,0.8H2c-0.3,0-0.6-0.3-0.6-0.6s0.3-0.6,0.6-0.6h13c0,0,0.1,0,0.1-0.1l3.4-6.9c0.3-0.7,1.2-1,1.8-0.6
	c0.4,0.2,0.6,0.5,0.7,0.9L24.5,28l0.3,0.7l-0.2-0.6c0,0,0.1,0,0.1-0.1l3.1-7.3c0.1-0.3,0.4-0.6,0.8-0.7c0.3-0.1,0.7-0.1,1.1,0
	c0.2,0.1,0.5,0.3,0.6,0.5l2,3.1H47c0.3,0,0.6,0.3,0.6,0.6s-0.3,0.6-0.6,0.6H32c-0.2,0-0.4-0.1-0.5-0.3l-2.2-3.3l-0.2,0l-3.2,7.4
	c-0.2,0.4-0.5,0.6-0.8,0.8C24.9,29.3,24.8,29.3,24.6,29.3z"/>
</svg>
