<svg width="169" height="192" viewBox="0 0 169 192" fill="none" xmlns="http://www.w3.org/2000/svg">
	<path d="M78.2732 2.74286C76.0755 3.65714 57.3951 12.2514 44.0259 25.7829C39.4473 27.0629 34.5025 28.7086 29.3746 31.0857C17.2873 36.3886 7.76395 43.1543 6.66511 43.8857L1.17088 47.9086L0.438322 54.6743C0.438322 55.9543 -0.660526 67.4743 0.621461 80.8229C1.17088 86.3086 2.08659 91.4286 3.36858 96C2.08659 100.571 1.17088 105.509 0.621461 110.994C-0.660526 124.343 0.43832 135.863 0.621461 137.143L1.17088 143.909L6.66511 147.931C7.76395 148.663 17.1041 155.429 29.3746 160.914C34.5025 163.109 39.4473 164.937 44.0259 166.034C57.3951 179.566 76.0755 188.16 78.2732 189.257L84.5 192L90.7268 189.257C92.9245 188.16 111.605 179.566 124.974 166.034C129.553 164.937 134.497 163.109 139.625 160.914C151.896 155.429 161.236 148.663 162.335 147.931L167.829 143.909L168.562 137.143C168.562 135.863 169.661 124.343 168.379 110.994C167.829 105.509 166.913 100.571 165.631 96C166.913 91.4286 167.829 86.3086 168.379 80.8229C169.661 67.4743 168.562 55.9543 168.562 54.6743L167.829 47.9086L162.335 43.8857C161.236 43.1543 151.713 36.3886 139.625 31.0857C134.497 28.7086 129.553 27.0629 124.974 25.7829C111.605 12.2514 92.9245 3.65714 90.7268 2.74286L84.5 0L78.2732 2.74286Z" fill="url(#paint0_linear)"/>
	<path d="M78.478 8.91768C76.4306 9.76531 59.0277 17.7331 46.5727 30.278C42.3073 31.4647 37.7006 32.9904 32.9234 35.1943C21.6627 40.1105 12.7906 46.383 11.7669 47.0611L6.64843 50.7907L5.96596 57.0632C5.96596 58.2499 4.94226 68.93 6.13658 81.3055C6.64843 86.3913 7.50151 91.138 8.69583 95.3762C7.50151 99.6143 6.64843 104.192 6.13658 109.277C4.94226 121.653 5.96596 132.333 6.13658 133.52L6.64843 139.792L11.7669 143.522C12.7906 144.2 21.4921 150.472 32.9234 155.558C37.7006 157.592 42.3073 159.288 46.5727 160.305C59.0277 172.85 76.4306 180.817 78.478 181.835L84.2789 184.378L90.0799 181.835C92.1273 180.817 109.53 172.85 121.985 160.305C126.251 159.288 130.857 157.592 135.634 155.558C147.066 150.472 155.767 144.2 156.791 143.522L161.909 139.792L162.592 133.52C162.592 132.333 163.616 121.653 162.421 109.277C161.909 104.192 161.056 99.6143 159.862 95.3762C161.056 91.138 161.909 86.3913 162.421 81.3055C163.616 68.93 162.592 58.2499 162.592 57.0632L161.909 50.7907L156.791 47.0611C155.767 46.383 146.895 40.1105 135.634 35.1943C130.857 32.9904 126.251 31.4647 121.985 30.278C109.53 17.7331 92.1273 9.76531 90.0799 8.91768L84.2789 6.37479L78.478 8.91768Z" fill="white"/>
	<mask id="mask0" mask-type="alpha" maskUnits="userSpaceOnUse" x="36" y="48" width="97" height="96">
		<g clip-path="url(#clip0)">
			<path d="M88.404 97.672C86.0725 100.032 82.2709 100.056 79.9074 97.732C79.8874 97.712 79.8673 97.692 79.8473 97.672L58.5198 76.072C53.933 71.668 52.7793 64.78 55.6836 59.124C59.6895 51.636 69.0153 48.812 76.5104 52.812C77.7642 53.48 78.9219 54.324 79.9474 55.308L84.1256 59.364L88.3078 55.308C94.4249 49.412 104.167 49.584 110.072 55.692C111.061 56.716 111.903 57.868 112.572 59.124C115.484 64.784 114.326 71.68 109.732 76.088L88.404 97.672Z" stroke="black" stroke-width="1.3" stroke-linecap="round" stroke-linejoin="round"/>
			<path d="M51.0764 141L43.0084 131.476C40.4527 128.284 39.0586 124.32 39.0586 120.232V99.5439C39.0586 96.2319 41.7506 93.5439 45.0675 93.5439C48.3844 93.5439 51.0764 96.2319 51.0764 99.5439V114.544" stroke="black" stroke-width="1.3" stroke-linecap="round" stroke-linejoin="round"/>
			<path d="M69.1031 141V129C69.1031 125.44 68.0495 121.96 66.0706 119L61.4958 112.16C59.8935 109.512 56.4484 108.66 53.7964 110.26C53.7203 110.304 53.6482 110.352 53.5761 110.4C51.2367 111.968 50.4235 115.024 51.6773 117.544L57.0933 126.544" stroke="black" stroke-width="1.3" stroke-linecap="round" stroke-linejoin="round"/>
			<path d="M117.174 141L125.242 131.476C127.798 128.284 129.192 124.32 129.192 120.232V99.5439C129.192 96.2319 126.5 93.5439 123.183 93.5439C119.866 93.5439 117.174 96.2319 117.174 99.5439V114.544" stroke="black" stroke-width="1.3" stroke-linecap="round" stroke-linejoin="round"/>
			<path d="M99.1475 141V129C99.1475 125.44 100.201 121.96 102.18 119L106.755 112.152C108.349 109.5 111.794 108.64 114.45 110.228C114.526 110.272 114.602 110.32 114.674 110.372C117.03 111.94 117.847 115.008 116.581 117.536L111.165 126.536" stroke="black" stroke-width="1.3" stroke-linecap="round" stroke-linejoin="round"/>
		</g>
	</mask>
	<g mask="url(#mask0)">
		<path d="M78.0681 2.80533C75.8762 3.71595 57.2448 12.2757 43.9105 25.7528C39.344 27.0277 34.4121 28.6668 29.2976 31.0344C17.242 36.316 7.74361 43.0545 6.64765 43.783L1.16781 47.7897L0.437174 54.5283C0.437174 55.8031 -0.658795 67.2769 0.619833 80.5719C1.16782 86.0355 2.08112 91.135 3.35975 95.6881C2.08112 100.241 1.16782 105.158 0.619833 110.622C-0.658795 123.917 0.437172 135.391 0.619833 136.666L1.16781 143.404L6.64765 147.411C7.74361 148.139 17.0593 154.878 29.2976 160.342C34.4121 162.527 39.344 164.348 43.9105 165.441C57.2448 178.918 75.8762 187.478 78.0681 188.571L84.2786 191.303L90.4891 188.571C92.681 187.478 111.312 178.918 124.647 165.441C129.213 164.348 134.145 162.527 139.26 160.342C151.498 154.878 160.814 148.139 161.91 147.411L167.389 143.404L168.12 136.666C168.12 135.391 169.216 123.917 167.937 110.622C167.389 105.158 166.476 100.241 165.197 95.6881C166.476 91.135 167.389 86.0355 167.937 80.5719C169.216 67.2769 168.12 55.8031 168.12 54.5283L167.389 47.7897L161.91 43.783C160.814 43.0545 151.315 36.316 139.26 31.0344C134.145 28.6668 129.213 27.0277 124.647 25.7528C111.312 12.2757 92.681 3.71595 90.4891 2.80533L84.2786 0.0734863L78.0681 2.80533Z" fill="url(#paint1_linear)"/>
	</g>
	<defs>
		<linearGradient id="paint0_linear" x1="84.5011" y1="1.82857" x2="84.5011" y2="184.686" gradientUnits="userSpaceOnUse">
			<stop stop-color="#55A4DB"/>
			<stop offset="0.2" stop-color="#7FC348"/>
			<stop offset="0.4" stop-color="#F79327"/>
			<stop offset="0.64" stop-color="#EE2B30"/>
			<stop offset="0.84" stop-color="#F27BAB"/>
			<stop offset="1" stop-color="#673090"/>
		</linearGradient>
		<linearGradient id="paint1_linear" x1="84.2797" y1="1.89472" x2="84.2797" y2="184.018" gradientUnits="userSpaceOnUse">
			<stop stop-color="#55A4DB"/>
			<stop offset="0.2" stop-color="#7FC348"/>
			<stop offset="0.4" stop-color="#F79327"/>
			<stop offset="0.64" stop-color="#EE2B30"/>
			<stop offset="0.84" stop-color="#F27BAB"/>
			<stop offset="1" stop-color="#673090"/>
		</linearGradient>
		<clipPath id="clip0">
			<rect x="36.0537" y="48" width="96.1422" height="96" fill="white"/>
		</clipPath>
	</defs>
</svg>
