<svg version="1.1" id="Layer_1" xmlns="http://www.w3.org/2000/svg" xmlns:xlink="http://www.w3.org/1999/xlink" x="0px" y="0px"
	 viewBox="0 0 384 265" style="enable-background:new 0 0 384 265;" xml:space="preserve">
<style type="text/css">
	.st0{clip-path:url(#SVGID_2_);}
	.st1{fill:url(#SVGID_3_);}
	.st2{fill:url(#SVGID_4_);}
	.st3{fill:#FFFFFF;}
</style>
	<g id="Layer_1_1_">
	<g>
		<path d="M29,150.8C29,150.8,28.9,150.8,29,150.8c-1.9,0-3.7-0.3-5.2-1.2c-2.1-1.3-3.3-3.8-3.6-6.2c-0.1-0.7-0.1-9.3,0.7-9.3
			c0,0,5.5,0,5.5,0c-0.1,2.9-0.4,6,0.1,8.9c0.2,1.4,1.2,2.8,2.6,2.8c1.1,0,1.9-0.9,2.3-1.9c1.4-3.9-0.3-38.6,0.4-38.6
			c0,0,6.9,0,6.9,0c0,6.6,0,13.1,0,19.7c0,6.3,2.1,19.6-3.3,24C33.5,150.4,31.2,150.8,29,150.8z"/>
		<path d="M51,105.2h7.9l8.4,45.2h-6.9l-1.2-8.1h-8.3l-1.2,8.1h-7L51,105.2z M58.3,137.2l-3.2-22.5h-0.3l-3.2,22.5H58.3z"/>
		<path d="M76,135.4l-9.1-30.1h6.9l5.5,21.6h0.3l5.5-21.6H92l-9.2,30.1v15.1H76V135.4z"/>
		<path d="M170.8,151c-2,0-4-0.6-5.7-1.7c-2.7-1.8-4.3-4.9-5-8.1s-0.7-6.4-0.6-9.6c0.1-3.6,0.1-7.1,0.2-10.7
			c0.1-4.5,0.3-9.5,3.2-12.9c3-3.5,8.6-4.4,12.5-2.1c5.1,3,5,8.7,4,13.8c0,0-5.5,0-5.6,0c0.5,0-0.6-7-0.8-7.6
			c-0.2-0.7-0.6-1.3-1.1-1.8c-1.3-1-3.3-0.2-4.2,1.2c-0.9,1.4-0.9,3.1-0.9,4.8c0,7.7,0,15.3,0,23c0,2.4,0.4,5.3,2.7,6
			c1.8,0.5,3.6-0.9,4.3-2.6c0.8-2.1,0.3-4.6,0.3-6.7c0,0,5.7,0,6.3,0c-0.1,4.8,0.7,9.7-3.7,13C175.1,150.3,172.9,151,170.8,151z"/>
		<path d="M191.9,105.2h7.9l8.4,45.2h-6.9l-1.2-8.1h-8.3l-1.2,8.1h-7L191.9,105.2z M199.1,137.2l-3.2-22.5h-0.3l-3.2,22.5H199.1z"/>
		<path d="M213.1,105.2h8.9l4.3,17.5c0.5,1.9,0.8,3.8,1.1,5.6c0.3,1.7,0.5,3.4,0.8,4.9h0.2c0.2-1.6,0.5-3.2,0.8-4.9
			c0.3-1.8,0.6-3.6,1.1-5.6l4.5-17.5h8.8v45.2h-6.4v-15c0-2.3,0-4.5,0.1-6.6c0.1-2.1,0.1-4.1,0.2-5.8c0.1-1.8,0.4-7.1,0.4-7.9h-0.5
			l-6.8,29.5h-4.3l-6.9-29.5h-0.5c0.1,0.8,0.1,1.9,0.2,3.2c0.1,1.4,0.2,2.9,0.2,4.7c0.1,1.8,0.1,3.7,0.2,5.8
			c0.1,2.1,0.1,4.3,0.1,6.6v15h-6.4v-45.2H213.1z"/>
		<path d="M251.2,105.2c3.7,0,7.6-0.3,11.2,0.3c2.1,0.4,4.1,1.1,5.7,2.5s2.6,3.3,3.2,5.3s0.7,4.1,0.8,6.2c0,3.2-0.2,6.4-1.2,9.4
			c-0.7,2-1.9,4-3.6,5.3c-1.4,1.1-3,1.7-4.7,2c-0.4,0.1-4.5,0.5-4.5,0.3v13.8h-6.9C251.2,150.4,251.2,105.2,251.2,105.2z
			 M258.4,131.6c4.1,0,5.9-2.5,6.3-6.4c0.3-3.2,0.3-6.4,0-9.5c-0.4-3.8-2.7-5.5-6.4-5.5H258v21.4C258,131.6,258.4,131.6,258.4,131.6
			z"/>
		<path d="M277.2,105.2c4.4,0,9.2-0.5,13.5,0.6c2.2,0.5,4.3,1.6,5.6,3.4c1.5,2,1.9,4.6,1.9,7.2c0,1.7-0.2,3.5-0.8,5.1
			c-0.9,2.4-2.8,4.5-5.3,5.1v0.2c2.2,0.4,3.9,1.5,5.1,3.2c2.9,4.1,2.5,12.8-0.7,16.6c-1.3,1.6-3.3,2.6-5.3,3.1
			c-2.8,0.7-5.6,0.7-8.5,0.7c-0.9,0-5-0.6-5.6,0C277.2,150.4,277.2,105.2,277.2,105.2z M285.3,124.6c2.3-0.1,4.4-0.5,5.5-3
			c0.8-1.8,0.7-3.8,0.4-5.8c-0.1-1.1-0.3-2.2-0.8-3.2c-1-2-3.3-2.4-5.3-2.4c0,0-1.3,0-1.3,0s0,14.3,0,14.3
			C284.3,124.6,284.8,124.6,285.3,124.6z M285.9,145.7c2.1-0.1,4.2-0.5,5.3-2.7c0.8-1.7,0.8-3.7,0.8-5.6c0-1.8-0.1-3.7-0.9-5.3
			c-1.5-3-4.6-2.7-7.4-2.7c0,0,0,16.3,0,16.3C284.4,145.7,285.2,145.7,285.9,145.7z"/>
		<path d="M305.5,105.2h16.8v5.4h-9.9v13.5h7.7v5.4h-7.7V145h10.2v5.4h-17v-45.2H305.5z"/>
		<path d="M327.5,105.2h6.9V145h9.3v5.4h-16.2L327.5,105.2L327.5,105.2z"/>
		<path d="M348,105.2h6.9V145h9.3v5.4H348V105.2z"/>
	</g>
		<g>
		<g>
			<defs>
				<rect id="SVGID_1_" x="95.7" y="96.2" width="57.8" height="65"/>
			</defs>
			<clipPath id="SVGID_2_">
				<use xlink:href="#SVGID_1_"  style="overflow:visible;"/>
			</clipPath>
			<g class="st0">
					<linearGradient id="SVGID_3_" gradientUnits="userSpaceOnUse" x1="328.35" y1="270.3595" x2="328.35" y2="332.302" gradientTransform="matrix(1 0 0 1 -204 -173.5)">
					<stop  offset="0" style="stop-color:#55A4DB"/>
						<stop  offset="0.2" style="stop-color:#7FC348"/>
						<stop  offset="0.4" style="stop-color:#F79327"/>
						<stop  offset="0.64" style="stop-color:#EE2B30"/>
						<stop  offset="0.84" style="stop-color:#F27BAB"/>
						<stop  offset="1" style="stop-color:#673090"/>
				</linearGradient>
				<path class="st1" d="M122.2,97.2c-0.7,0.3-7.1,3.2-11.6,7.8c-1.5,0.4-3.2,1-5,1.8c-4.1,1.8-7.3,4.1-7.7,4.3l-1.9,1.4l-0.2,2.3
					c0,0.4-0.4,4.3,0.1,8.9c0.2,1.9,0.5,3.6,0.9,5.1c-0.4,1.5-0.7,3.2-0.9,5.1c-0.4,4.5-0.1,8.4,0,8.9l0.2,2.3l1.9,1.4
					c0.4,0.2,3.5,2.5,7.7,4.4c1.7,0.7,3.4,1.4,5,1.7c4.5,4.6,10.8,7.5,11.6,7.9l2.1,0.9l2.1-0.9c0.7-0.4,7.1-3.3,11.6-7.9
					c1.5-0.4,3.2-1,5-1.7c4.2-1.9,7.3-4.2,7.7-4.4l1.9-1.4l0.2-2.3c0-0.4,0.4-4.3-0.1-8.9c-0.2-1.9-0.5-3.5-0.9-5.1
					c0.4-1.5,0.7-3.3,0.9-5.1c0.4-4.5,0.1-8.4,0.1-8.9l-0.2-2.3l-1.9-1.4c-0.4-0.2-3.6-2.5-7.7-4.3c-1.7-0.8-3.4-1.4-5-1.8
					c-4.5-4.6-10.8-7.5-11.6-7.8l-2.1-0.9L122.2,97.2z"/>
				<linearGradient id="SVGID_4_" gradientUnits="userSpaceOnUse" x1="328.3" y1="274.8688" x2="328.3" y2="328.0476" gradientTransform="matrix(1 0 0 1 -204 -173.5)">
					<stop  offset="0" style="stop-color:#55A4DB"/>
					<stop  offset="0.2" style="stop-color:#7FC348"/>
					<stop  offset="0.4" style="stop-color:#F79327"/>
					<stop  offset="0.64" style="stop-color:#EE2B30"/>
					<stop  offset="0.84" style="stop-color:#F27BAB"/>
					<stop  offset="1" style="stop-color:#673090"/>
				</linearGradient>
				<path class="st2" d="M123.9,101c-0.4,0.2-7.1,3.2-11.1,7.8c-1.6,0.4-3.5,1-5.4,1.8c-3.8,1.8-6.8,3.9-6.9,4l-0.4,0.2l-0.1,0.4
					c0,0.2-0.4,3.8,0.1,8c0.3,2.1,0.6,4,1.2,5.6c-0.5,1.5-0.9,3.4-1.2,5.5c-0.4,4.2-0.1,7.9-0.1,8l0.1,0.4l0.4,0.3
					c0.1,0.1,3.1,2.2,6.9,3.9c2,0.9,3.8,1.5,5.4,1.8c4,4.6,10.7,7.6,11.1,7.8l0.4,0.2l0.4-0.2c0.4-0.2,7.1-3.2,11.1-7.8
					c1.6-0.3,3.5-1,5.4-1.8c3.8-1.7,6.8-3.9,6.9-3.9l0.4-0.3l0.1-0.4c0-0.1,0.4-3.8-0.1-8c-0.3-2.1-0.6-4-1.2-5.5
					c0.5-1.6,0.9-3.5,1.2-5.6c0.4-4.2,0.1-7.8,0.1-8l-0.1-0.4l-0.4-0.2c-0.1-0.1-3.1-2.2-6.9-4c-2-0.9-3.8-1.4-5.4-1.8
					c-4-4.5-10.7-7.6-11.1-7.8l-0.4-0.2L123.9,101z"/>
				<path class="st3" d="M146.7,141.7c-0.9,0.6-3.3,2.2-6.3,3.5c-0.9,0.4-1.9,0.8-3,1.1c0.7-1.3,1.2-2.7,1.2-4.2
					c0-2.1-0.5-4.1-1.3-5.9c2-0.2,3.9-0.8,5.7-1.8c1.2-0.7,2.2-1.7,3-3.1c0.2,1.1,0.4,2.1,0.5,3.1
					C147,137.7,146.8,140.6,146.7,141.7z M124.3,154.6c-1-0.5-3.6-1.8-6.2-3.7c-0.8-0.6-1.6-1.2-2.4-2c1.6,0,3-0.4,4.2-1.1
					c1.8-1,3.3-2.4,4.5-4c1.2,1.6,2.6,3,4.5,4c1.2,0.7,2.6,1,4.2,1.1c-0.8,0.7-1.6,1.4-2.4,2C127.9,152.8,125.3,154.2,124.3,154.6z
					 M108.2,145.2c-2.9-1.3-5.4-2.9-6.3-3.5c-0.1-1.1-0.2-4,0.1-7.2c0.1-1,0.3-2,0.5-3.1c0.8,1.4,1.8,2.4,3,3.1
					c1.8,1,3.8,1.7,5.7,1.8c-0.8,1.8-1.3,3.8-1.3,5.9c0,1.5,0.5,2.8,1.2,4.2C110.1,146,109.1,145.6,108.2,145.2z M102,123
					c-0.3-3.2-0.2-6.2-0.1-7.2c0.9-0.6,3.4-2.2,6.3-3.5c0.9-0.4,1.9-0.8,2.9-1.1c-0.7,1.3-1.2,2.7-1.2,4.2c0,2.1,0.5,4.1,1.3,5.9
					c-2,0.2-3.9,0.8-5.7,1.9c-1.2,0.7-2.2,1.7-3,3.1C102.2,125,102.1,124,102,123z M124.3,102.8c1,0.5,3.6,1.8,6.2,3.7
					c0.8,0.6,1.6,1.2,2.4,2c-1.6,0-3,0.4-4.2,1.1c-1.8,1-3.3,2.4-4.5,4c-1.2-1.6-2.6-3-4.5-4c-1.2-0.7-2.6-1-4.2-1.1
					c0.8-0.7,1.6-1.4,2.4-2C120.7,104.6,123.4,103.3,124.3,102.8z M137.5,123c1.6,0.2,3.3,0.7,4.7,1.6c1.5,0.8,2.5,2.4,3.1,4.1
					c-0.7,1.8-1.7,3.3-3.1,4.1c-1.5,0.9-3.1,1.4-4.7,1.6c0.8-1.8,1.2-3.7,1.2-5.7C138.7,126.7,138.3,124.8,137.5,123z M111.1,134.5
					c-1.6-0.2-3.3-0.7-4.7-1.6c-1.5-0.8-2.5-2.4-3.1-4.1c0.7-1.8,1.7-3.3,3.1-4.1c1.5-0.9,3.1-1.4,4.7-1.6c-0.8,1.8-1.2,3.7-1.2,5.7
					C109.9,130.8,110.4,132.7,111.1,134.5z M135.9,133.6c-1.6-2.2-3.9-3.9-6.5-4.9c2.6-1,4.8-2.7,6.5-4.9c0.6,1.5,1,3.2,1,4.9
					C136.8,130.5,136.5,132.1,135.9,133.6z M126.1,129.8c3.2,0.5,6,2.2,8,4.6c-0.5-0.1-0.9-0.2-1.4-0.3
					C130.1,133.4,127.8,131.9,126.1,129.8z M126.8,133.1c2.2,1.8,4.8,2.8,7.5,3.2c-2,2.6-5,4.5-8.5,4.9
					C126.9,138.7,127.3,135.9,126.8,133.1z M121.8,133.1c-0.5,2.7-0.1,5.5,1,8.1c-3.4-0.4-6.5-2.2-8.5-4.9
					C117,136,119.6,134.9,121.8,133.1z M122.5,129.8c-1.7,2.1-3.9,3.6-6.6,4.3c-0.5,0.1-0.9,0.2-1.4,0.3
					C116.4,132,119.3,130.3,122.5,129.8z M112.8,123.8c1.6,2.2,3.9,3.9,6.5,4.9c-2.6,1-4.8,2.7-6.5,4.9c-0.6-1.5-1-3.2-1-4.9
					S112.1,125.3,112.8,123.8z M122.5,127.7c-3.2-0.5-6-2.2-8-4.6c0.5,0.1,0.9,0.2,1.4,0.3C118.5,124.1,120.8,125.6,122.5,127.7z
					 M121.8,124.3c-1.6-1.3-3.4-2.2-5.4-2.8c-0.7-0.2-1.4-0.3-2.1-0.4c2-2.6,5-4.5,8.5-4.9C121.7,118.8,121.3,121.6,121.8,124.3z
					 M134.1,123.1c-1.9,2.4-4.8,4.1-8,4.6c1.7-2.1,3.9-3.6,6.6-4.3C133.2,123.2,133.7,123.1,134.1,123.1z M132.2,121.6
					c-2,0.5-3.8,1.5-5.4,2.8c0.4-2.7,0.1-5.5-1-8c3.4,0.4,6.5,2.2,8.5,4.9C133.6,121.3,132.9,121.4,132.2,121.6z M124.3,130.8
					c1.2,3,1.1,6.3,0,9.2C123.2,137.2,123.1,133.9,124.3,130.8z M124.3,126.6c-1.2-3-1.1-6.3,0-9.2
					C125.5,120.3,125.5,123.6,124.3,126.6z M134.8,110.5c1.2,1.5,2,3.1,2,4.8c0,1.7-0.4,3.4-1,4.9c-2.3-3.1-5.8-5.3-9.9-5.7
					c1-1.3,2.2-2.4,3.7-3.3c1-0.6,2.1-0.8,3.4-0.8C133.7,110.3,134.2,110.4,134.8,110.5z M113.8,110.5c1.9-0.3,3.7-0.2,5.1,0.7
					c1.5,0.9,2.8,2,3.7,3.3c-4,0.5-7.6,2.6-9.9,5.7c-0.6-1.5-1-3.2-1-4.9C111.8,113.6,112.6,112,113.8,110.5z M113.8,147
					c-1.2-1.5-2-3.1-2-4.8s0.4-3.4,1-4.9c2.3,3.1,5.8,5.3,9.9,5.7c-1,1.3-2.2,2.4-3.7,3.3C117.5,147.2,115.6,147.3,113.8,147z
					 M134.8,147c-1.9,0.3-3.7,0.2-5.1-0.7c-1.5-0.9-2.8-2-3.7-3.3c4-0.5,7.6-2.6,9.9-5.7c0.6,1.5,1,3.2,1,4.9
					C136.8,143.9,136,145.5,134.8,147z M140.4,112.3c2.9,1.3,5.4,2.9,6.3,3.5c0.1,1.1,0.2,4-0.1,7.2c-0.1,1-0.3,2.1-0.5,3.1
					c-0.8-1.4-1.8-2.4-3-3.1c-1.8-1-3.7-1.7-5.7-1.9c0.8-1.8,1.3-3.8,1.3-5.9c0-1.5-0.5-2.8-1.2-4.2
					C138.5,111.5,139.5,111.8,140.4,112.3z M147.3,128.7c0.5-1.6,0.9-3.4,1.1-5.6c0.4-4.2,0.1-7.8,0-8v-0.4l-0.3-0.2
					c-0.1-0.1-3.1-2.2-6.9-4c-2-0.9-3.8-1.5-5.4-1.8c-4-4.6-10.7-7.6-11.1-7.8l-0.4-0.2l-0.4,0.2c-0.4,0.2-7.1,3.2-11.1,7.8
					c-1.6,0.3-3.4,0.9-5.4,1.8c-3.8,1.7-6.8,3.9-6.9,4l-0.3,0.2v0.4c0,0.2-0.4,3.8,0,8c0.2,2.1,0.6,4,1.1,5.6
					c-0.5,1.6-0.9,3.4-1.1,5.6c-0.4,4.2-0.1,7.8,0,8v0.4l0.3,0.2c0.1,0.1,3.1,2.2,6.9,4c2,0.9,3.8,1.5,5.4,1.8
					c4,4.6,10.7,7.6,11.1,7.8l0.4,0.2l0.4-0.2c0.4-0.2,7.1-3.2,11.1-7.8c1.6-0.3,3.4-0.9,5.4-1.8c3.8-1.7,6.8-3.9,6.9-4l0.3-0.2
					v-0.4c0-0.2,0.4-3.8,0-8C148.3,132.2,147.9,130.3,147.3,128.7z"/>
			</g>
		</g>
	</g>
		<path d="M10,10v245h364V10H10z M15,250V15h354v235H15z"/>
</g>
</svg>
